<svg width="32" height="32" viewBox="0 0 32 32" fill="none" xmlns="http://www.w3.org/2000/svg">
<path d="M18.1309 32C15.1905 32 12.7977 29.6082 12.7977 26.6668V9.59994C12.7938 8.74684 13.1249 7.94066 13.73 7.3323C14.9386 6.11768 17.057 6.11768 18.2656 7.3323C18.8707 7.94066 19.202 8.74684 19.1979 9.60536V24.5331C19.1979 25.1231 18.7206 25.6001 18.1309 25.6001C17.5416 25.6001 17.0646 25.1231 17.0646 24.5331V9.59994C17.0656 9.30941 16.9549 9.04068 16.754 8.83745C16.3499 8.43323 15.6458 8.43323 15.2416 8.83745C15.0406 9.04068 14.9302 9.30934 14.9312 9.59488V26.6668C14.9312 28.4316 16.3666 29.8669 18.1309 29.8669C19.8956 29.8669 21.331 28.4316 21.331 26.6668V7.46673C21.331 4.52614 18.9386 2.13342 15.9978 2.13342C13.0571 2.13342 10.6643 4.52622 10.6643 7.46673V22.4001C10.6643 22.9897 10.1873 23.4667 9.59779 23.4667C9.00828 23.4667 8.53125 22.9897 8.53125 22.4001V7.46673C8.53132 3.35015 11.8811 0 15.9979 0C20.1147 0 23.4649 3.35015 23.4649 7.46673V26.6668C23.4648 29.6082 21.073 32 18.1309 32Z" fill="#2B427E"/>
</svg>
